<?xml version="1.0" encoding="UTF-8"?>
<svg id="Layer_2" data-name="Layer 2" xmlns="http://www.w3.org/2000/svg" viewBox="0 0 1005.56 1005.56">
  <g id="Layer_1-2" data-name="Layer 1">
    <g>
      <path d="M685.81,53.09c145.14-1.57,268.24,121.48,266.65,266.66,0,0,0,366.06,0,366.06,0,36.02-7.04,70.94-20.93,103.78-26.48,63.26-78.69,115.46-141.94,141.94-32.84,13.89-67.76,20.93-103.78,20.93,0,0-366.06,0-366.06,0-36.02,0-70.94-7.04-103.78-20.93-97.05-40.01-164.14-140.49-162.88-245.72,0,0,0-366.06,0-366.06-.25-70.45,28.22-138.96,78.1-188.55,49.59-49.88,118.11-78.35,188.55-78.1,0,0,366.06,0,366.06,0M685.81,0h-366.06C143.15,0,0,143.15,0,319.75v366.06c0,176.59,143.15,319.75,319.75,319.75h366.06c176.59,0,319.75-143.15,319.75-319.75v-366.06C1005.56,143.15,862.4,0,685.81,0h0Z"/>
      <g>
        <path d="M757.7,754.47c.14-2.48,1.36-4.97,3.05-7.76,28.24-42.45,44.62-92.8,43.9-147.39-.49-166.73-165.43-291.29-325.94-246.31-4.61,1.29-9.16,2.44-13.43,4.26-3.42,1.53-3.84,2.9-6.09,5.89-37.07,51.38-93.9,129.81-132.3,182.98-18.59,25.73-32.89,45.45-37.35,51.68-2.05,3.46-1.65,6.13-1.7,10.98,2.5,194.74,223.88,316.94,389.38,216.43,6.35-3.77,13.63-9.23,20.39-3.27,8.08,6.81,16.42,17.26,24.09,24.45,8.37,8.85,22.18,12.49,33.38,6.43,7.38-3.96,13.02-10.53,19.07-16.37,11.72-11.12,21.55-23.19,14.45-39.88-2.61-5.86-6.72-10.18-11.06-15.06-4.22-4.68-9.24-10.11-13.45-14.81-3.46-3.71-6.78-8.6-6.39-12.1v-.17ZM691.55,684.48c-.64.93-1.29,1.29-2,.5-28.97-31.79-102.31-112.29-115.06-126.29-12.01-13.15-27.74-17.92-45.39-17-9.64.07-21.22-.11-30.22.07-12.8.39-20.82,7.47-27.97,18.34-7.06,10.18-15.64,20.12-21.53,30.21-6.02,11.05-2.84,26.4,7.85,33.7,6.23,4.53,13.98,5.47,21.43,5.23,7.43,0,21.7,0,28.98,0,4.03-.04,6.7.34,8.33.99,14.8,12.71,97.89,102.97,111.46,116.96.24,1.61-3.77,3.21-5.62,4.26-23.38,11.9-49.4,18.12-76.36,17.99-71.97.77-139.73-50.3-159.31-119.42-24.75-82.81,19.02-172.05,99.7-203.14,67.03-26.5,146.98-4.94,191.28,52.11,41.8,51.27,47.79,128.76,14.49,185.39l-.07.1Z"/>
        <path d="M559.42,184.61c2.46-22.32-9.04-38.73-31.76-40.2-29.74-.14-252.17-.1-284.29,0-19.33,2.14-21.64,22.72-20.43,39.5-1.52,17.24,2.79,37.87,23.13,37.73,37.3.1,137.81-.05,184.08,0,4.63,0,4.07.08,2.19,2.64-46.96,61.93-183.24,241.49-224.25,295.57-12.04,16.48-9.76,48.36,12.48,55.62,17.28,4.19,38.85,5.09,53.76-5.39,28.35-39.52,272.32-343.55,285.08-385.48Z"/>
      </g>
    </g>
  </g>
</svg>