<?xml version="1.0" encoding="UTF-8"?>
<svg id="Layer_2" data-name="Layer 2" xmlns="http://www.w3.org/2000/svg" viewBox="0 0 931.85 556.21">
  <g id="Layer_1-2" data-name="Layer 1">
    <g>
      <path d="M856.27,468.94c73.26-85.38,86.23-201.97,32.57-299.47-28.14-51.14-70.25-89.84-121.75-111.93-47.58-20.4-100.62-25.99-153.38-16.14-52.77,9.84-100.25,34.16-137.33,70.33-40.08,39.1-65.37,90.15-73.14,147.65-6.84,50.59.8,101.1,22.07,146.08,19.98,42.23,51.3,78.65,90.57,105.3,38.82,26.35,83.53,41.84,129.29,44.81,46.23,3,92.65-7.06,134.76-29.13l26.72,29.78h125.2l-75.58-87.27ZM712.53,448.17c-53.82,17.29-110.76,6.24-154.26-30.49-45.87-38.72-65.82-97.18-53.39-156.39,12.15-57.86,62.23-108.89,119.09-121.34,12.39-2.71,24.72-4.03,36.85-4.03,56.58,0,108.42,28.77,138.14,78.87,27.04,45.58,37.51,115.27-11.21,177.57-9.95-10.29-28.62-32.18-37.63-42.75-5.59-6.55-9.62-11.28-11.48-13.29l-6.83-7.41-67.75,63.59,48.47,55.69Z"/>
      <path d="M391.67,449.07c12.52,26.49,29.51,50.67,50.15,71.62H0L266.67,101.64H21.48L88.08,0h372.48L193.9,419.05h185.85c3.33,10.23,7.3,20.26,11.92,30.02Z"/>
    </g>
  </g>
</svg>